<svg version="1.1" xmlns="http://www.w3.org/2000/svg" style="display:none;">
  <symbol id="react-editor-ol" viewBox="0 0 24 24">
    <path d="M8.3 17.48h12.75v1.65H8.3zM8.3 5.48h12.75v1.65H8.3zM8.3 11.48h12.75v1.65H8.3zM5.47 7h-.66V4.05h-.74L4 4.1a1.72 1.72 0 0 1-.66.26h-.21v.82h.6V7H3v1h2.47zM5.2 12.43a2.07 2.07 0 0 0 .39-1.12v-.12a1.2 1.2 0 0 0-1.26-1.14 1.53 1.53 0 0 0-1.2.59l-.13.18.63.67.18-.21a.7.7 0 0 1 .45-.28.3.3 0 0 1 .23.11.42.42 0 0 1 .07.27 1.37 1.37 0 0 1-.32.75 7.41 7.41 0 0 1-1.07 1.1l-.09.08V14h2.69v-1h-1a4.63 4.63 0 0 0 .43-.57zM5.3 18a1 1 0 0 0 .31-.75 1 1 0 0 0-.38-.83 1.35 1.35 0 0 0-.88-.33 1.65 1.65 0 0 0-1.11.47l-.18.16.6.73.2-.2a.75.75 0 0 1 .47-.25.33.33 0 0 1 .19.06.17.17 0 0 1 .05.15.22.22 0 0 1-.08.2.83.83 0 0 1-.49.09h-.28v.9H4a1.08 1.08 0 0 1 .61.12.22.22 0 0 1 .09.21.24.24 0 0 1-.08.21.4.4 0 0 1-.28.08.82.82 0 0 1-.58-.28l-.21-.22-.55.74.14.16a1.62 1.62 0 0 0 1.23.58 1.48 1.48 0 0 0 .93-.3 1.13 1.13 0 0 0 .42-.89A1 1 0 0 0 5.3 18z" />
  </symbol>
  <symbol id="react-editor-bold" viewBox="0 0 24 24">
    <path d="M7.2 19.8h4.93c3.46 0 5.87-1.51 5.87-4.57a3.58 3.58 0 0 0-3.15-3.72v-.11A3.39 3.39 0 0 0 17.11 8c0-2.74-2.17-3.82-5.32-3.82H7.2zm2-9v-5h2.38c2.41 0 3.65.68 3.65 2.51 0 1.57-1.08 2.57-3.73 2.57zm0 7.37v-5.83h2.7c2.7 0 4.22.89 4.22 2.82 0 2.11-1.57 3.06-4.22 3.06z" />
  </symbol>
  <symbol id="react-editor-code" viewBox="0 0 24 24">
    <path fill-rule="evenodd" d="M1.08 12.48l7.72 3.46v-1.58l-5.58-2.47L8.8 9.4V7.84l-7.72 3.44v1.2zM15.2 7.84V9.4l5.59 2.49-5.59 2.47v1.58l7.72-3.46v-1.2L15.2 7.84zM10 16.73h1.7l2.5-9.45h-1.67L10 16.73z" />
  </symbol>
  <symbol id="react-editor-h1" viewBox="0 0 24 24">
    <path d="M12.46 12.55H5.54v7H3.41V4.41h2.13v6.32h6.92V4.41h2.13v15.18h-2.13z" fill-rule="evenodd" />
    <path d="M16.8 19.6h3.6v-1h-1.12v-5h-.88a3.76 3.76 0 0 1-1.4.51v.74h1.09v3.79H16.8z" />
  </symbol>
  <symbol id="react-editor-h2" viewBox="0 0 24 24">
    <path d="M12.46 12.55H5.54v7H3.41V4.41h2.13v6.32h6.92V4.41h2.13v15.18h-2.13z" fill-rule="evenodd" />
    <path d="M16.66 19.6h3.94v-1h-1.27a7.89 7.89 0 0 0-1 .07c1.07-1.05 1.95-2.2 1.95-3.27a1.73 1.73 0 0 0-1.85-1.81 2.37 2.37 0 0 0-1.87.89l.64.64a1.52 1.52 0 0 1 1.08-.61.84.84 0 0 1 .88 1c0 .9-.95 2-2.54 3.44z" />
  </symbol>
  <symbol id="react-editor-h3" viewBox="0 0 24 24">
    <path d="M12.46 12.55H5.54v7H3.41V4.41h2.13v6.32h6.92V4.41h2.13v15.18h-2.13z" fill-rule="evenodd" />
    <path d="M18.54 19.6a1.81 1.81 0 0 0 2-1.68 1.44 1.44 0 0 0-1.15-1.42 1.37 1.37 0 0 0 1-1.32c0-1-.76-1.54-1.87-1.54a2.57 2.57 0 0 0-1.74.71l.59.7a1.56 1.56 0 0 1 1.09-.5.68.68 0 0 1 .77.71c0 .52-.34.89-1.4.89v.82c1.26 0 1.59.36 1.59.92s-.4.81-1 .81a1.84 1.84 0 0 1-1.29-.59l-.54.72a2.43 2.43 0 0 0 1.95.77z" />
  </symbol>
  <symbol id="react-editor-hr" viewBox="0 0 24 24">
    <path d="M20.63 6.07H3.38v1.65h17.25zm-5.1 5.1h-7v1.65h7zm-9 0H4v1.65h2.53zm13.5 0h-2.55v1.65H20zm.6 5.1H3.38v1.65h17.25z" fill-rule="evenodd" />
  </symbol>
  <symbol id="react-editor-image" viewBox="0 0 24 24">
      <circle cx="14.7" cy="8.7" r="1.2" />
    <path d="M4.5 4.5v15h15v-15zM18 18H6v-2.64l3.16-2.53L18 15.55zm0-4l-9.16-2.83L6 13.44V6h12z" fill-rule="evenodd" />
  </symbol>
  <symbol id="react-editor-italic" viewBox="0 0 24 24">
    <path d="M9 4.79h8.38l-.34 1.72h-3.16l-2.25 11.64h3.17l-.33 1.71H6.09l.33-1.71h3.16l2.26-11.64H8.67z" />
  </symbol>
  <symbol id="react-editor-link" viewBox="0 0 24 24">
    <path d="M13.8 10.24a3.59 3.59 0 0 0-.36-.32.73.73 0 0 0-1.24.52.77.77 0 0 0 .17.47.93.93 0 0 0 .18.16l.2.17.06.06a2 2 0 0 1-.22 2.81l-3.23 3.22a1.93 1.93 0 0 1-2.74 0l-.06-.06a2 2 0 0 1 0-2.74L8 13.11a.79.79 0 0 0-.5-1.41.77.77 0 0 0-.45.14l-.17.16-1.48 1.37a3.59 3.59 0 0 0 0 5.06l.06.06a3.59 3.59 0 0 0 5.06 0l3.22-3.22a3.5 3.5 0 0 0 .12-5z" />
    <path d="M18.44 5.51l-.06-.06a3.58 3.58 0 0 0-5 0l-3.27 3.22a3.27 3.27 0 0 0-.11 4.79l.06.06.19.18a.75.75 0 0 0 .17.14.68.68 0 0 0 .35.09.68.68 0 0 0 .68-.69.77.77 0 0 0-.06-.3 1.53 1.53 0 0 0-.39-.44v-.06a1.81 1.81 0 0 1 .28-2.61l3.23-3.22a1.93 1.93 0 0 1 2.74 0l.06.06a2 2 0 0 1 0 2.74l-1.42 1.42a.76.76 0 0 0-.32.63.78.78 0 0 0 .78.78.81.81 0 0 0 .41-.11A.69.69 0 0 0 17 12l1.49-1.38a3.57 3.57 0 0 0-.05-5.11z" />
  </symbol>
  <symbol id="react-editor-quote" viewBox="0 0 24 24">
    <path d="M5.33 7.2h3.75V5.55h-5.4v12.9h7.65V10.8h-6zm0 9.6v-4.35h4.35v4.35zM14.33 10.8V7.2h3.75V5.55h-5.4v12.9h7.65V10.8zm0 6v-4.35h4.35v4.35z" />
  </symbol>
  <symbol id="react-editor-strike" viewBox="0 0 24 24">
    <path d="M12.38 19.78c3.21 0 5.23-1.94 5.23-4.37s-1.39-3.34-3.17-4.12l-2.21-.94C11 9.84 9.69 9.28 9.69 7.79s1.14-2.27 2.88-2.27A5 5 0 0 1 16.08 7l1-1.24a6.31 6.31 0 0 0-4.54-1.91c-2.79 0-4.85 1.72-4.85 4.09s1.7 3.34 3.13 3.95l2.22 1c1.45.65 2.57 1.15 2.57 2.73s-1.22 2.52-3.24 2.52a6 6 0 0 1-4.24-1.92L7 17.49a7.41 7.41 0 0 0 5.38 2.29z" />
    <path d="M4.5 12h15v1.5h-15z" />
  </symbol>
  <symbol id="react-editor-sub" viewBox="0 0 24 24">
    <path d="M5.22 4H2.54l4.89 7.74L2.2 20h2.56l2.59-4.31c.45-.78.9-1.57 1.4-2.49.56.93 1 1.71 1.49 2.49L12.87 20h2.69l-5.23-8.15L15.22 4h-2.56l-2.4 4.1c-.33.56-.61 1.08-.93 1.69l-.3.56c-.27-.43-.5-.81-.71-1.17L8.23 9l-.56-.94z" fill-rule="evenodd" />
    <path d="M17.85 19.91h3.95v-1h-1.27c-.28 0-.67 0-1 .06 1.08-1 2-2.2 2-3.26a1.73 1.73 0 0 0-1.85-1.82 2.33 2.33 0 0 0-1.87.9l.63.63a1.59 1.59 0 0 1 1.09-.6.84.84 0 0 1 .88.95c0 .91-.95 2-2.55 3.45z" />
  </symbol>
  <symbol id="react-editor-sup" viewBox="0 0 24 24">
    <path d="M5.22 4H2.54l4.89 7.74L2.2 20h2.56l2.59-4.31c.45-.78.9-1.57 1.4-2.49.56.93 1 1.71 1.49 2.49L12.87 20h2.69l-5.23-8.15L15.22 4h-2.56l-2.4 4.1c-.33.56-.61 1.08-.93 1.69l-.3.56c-.27-.43-.5-.81-.71-1.17L8.23 9l-.56-.94z" fill-rule="evenodd" />
    <path d="M17.85 10h3.95V9h-1.27c-.28 0-.67 0-1 .07 1.08-1.05 2-2.2 2-3.27A1.73 1.73 0 0 0 19.67 4a2.35 2.35 0 0 0-1.87.89l.63.64a1.56 1.56 0 0 1 1.09-.61.84.84 0 0 1 .88 1c0 .91-.95 2-2.55 3.44z" />
  </symbol>
  <symbol id="react-editor-ul" viewBox="0 0 24 24">
    <path d="M6.3 5.17H4.05v1.65H6.3zm0 6H4.05v1.65H6.3zm0 6H4.05v1.65H6.3zm15-12H8.55v1.65H21.3zm0 6H8.55v1.65H21.3zm0 6H8.55v1.65H21.3z" />
  </symbol>
  <symbol id="react-editor-undo" viewBox="0 0 24 24">
    <path d="M12.94 7.65h-2.71V4.5L4.39 7.65V9h8.55a3.91 3.91 0 0 1 0 7.81h-7v1.31h7a5.22 5.22 0 0 0 0-10.44z" />
  </symbol>
  <symbol id="react-editor-redo" viewBox="0 0 24 24">
    <path d="M9.54 9h8.56V7.65L12.28 4.5v3.15H9.54a5.22 5.22 0 0 0 0 10.44h7v-1.31h-7a3.91 3.91 0 0 1 0-7.78z" />
  </symbol>
</svg>